<svg xmlns="http://www.w3.org/2000/svg" width="600" height="406" fill="none"><path fill="#fff" d="M135.351 319.765c-3.774-1.258-7.128-1.817-9.923-1.817-3.215 0-5.731.559-7.548 1.817-1.816 1.258-2.795 2.935-2.795 5.032 0 1.956.699 3.494 1.957 4.891 1.258 1.398 2.935 2.376 4.892 3.215 1.956.839 4.612 1.817 8.106 2.795 4.752 1.398 8.665 2.796 11.601 4.193 3.074 1.398 5.59 3.494 7.687 6.15 2.096 2.795 3.214 6.289 3.214 10.762 0 4.332-1.118 7.966-3.494 11.181-2.236 3.215-5.451 5.591-9.504 7.268-4.053 1.677-8.665 2.516-13.837 2.516-5.451 0-10.762-.979-16.073-3.075-5.171-2.097-9.783-4.752-13.557-8.107l5.591-11.46c3.494 3.214 7.547 5.87 11.88 7.687 4.332 1.817 8.525 2.795 12.299 2.795 3.774 0 6.709-.699 8.805-2.097 2.097-1.397 3.215-3.354 3.215-5.87 0-1.956-.699-3.634-1.957-4.891-1.258-1.258-2.935-2.376-4.892-3.215-1.956-.839-4.752-1.677-8.246-2.656-4.752-1.397-8.665-2.795-11.6-4.053-2.935-1.397-5.591-3.354-7.687-6.01-2.097-2.655-3.215-6.289-3.215-10.622 0-4.053 1.118-7.687 3.215-10.622 2.236-3.075 5.171-5.451 9.224-6.988 3.914-1.677 8.526-2.516 13.697-2.516 4.473 0 9.085.699 13.418 1.957 4.472 1.397 8.385 3.075 11.88 5.451l-5.451 11.74c-3.355-2.516-7.128-4.193-10.902-5.451ZM216.974 313.196c4.892 4.193 7.268 10.203 7.268 17.75 0 7.967-2.376 14.256-7.268 18.589-4.892 4.472-11.601 6.709-20.406 6.709h-15.374v20.545h-13.417v-70.022h28.651c8.806.14 15.654 2.236 20.546 6.429Zm-9.504 27.953c2.655-2.236 4.053-5.451 4.053-9.783 0-4.333-1.398-7.408-4.053-9.644-2.656-2.097-6.569-3.215-11.601-3.215h-14.675v25.857h14.675c4.892.139 8.806-.979 11.601-3.215ZM237.799 306.907h51.294v11.74h-37.877v17.331h33.963v11.74h-33.963v17.61h39.134v11.741h-52.551v-70.162ZM348.353 320.324c-3.354-1.537-6.849-2.376-10.203-2.376-4.333 0-8.246.978-11.88 3.075-3.634 2.096-6.429 4.892-8.526 8.526-2.096 3.633-3.074 7.687-3.074 12.019 0 4.333.978 8.386 3.074 12.02 2.097 3.634 4.892 6.569 8.526 8.666 3.634 2.096 7.547 3.214 11.88 3.214 3.354 0 6.709-.699 10.063-2.236 3.354-1.398 6.29-3.494 8.945-6.15l7.967 8.805c-3.634 3.774-7.967 6.709-12.859 8.806-4.891 2.236-9.783 3.214-14.815 3.214-6.709 0-12.858-1.537-18.449-4.752-5.59-3.214-10.063-7.547-13.138-12.998-3.214-5.451-4.752-11.6-4.752-18.309 0-6.709 1.677-12.719 4.892-18.17 3.215-5.45 7.687-9.783 13.418-12.858 5.59-3.075 11.88-4.752 18.728-4.752 5.032 0 9.923.978 14.675 2.935 4.752 1.957 8.945 4.752 12.3 8.246l-7.827 9.784c-2.656-2.796-5.591-5.032-8.945-6.709ZM378.542 306.907h13.418v70.022h-13.418v-70.022ZM463.519 376.929l-6.289-14.815h-34.243l-6.149 14.815h-13.837l30.748-70.022h13.837l30.329 70.022h-14.396Zm-35.64-26.276h24.599l-12.16-29.351-12.439 29.351ZM488.817 306.907h13.417v57.862h30.189v12.16h-43.606v-70.022ZM115.505 263.3h5.73v26.975h-5.591l-13.138-17.331v17.331h-5.87V263.3h5.591l13.138 17.471V263.3h.14ZM142.619 263.3h20.545v5.032h-14.535v5.87h12.998v5.031h-12.998v6.01h14.955v5.032h-20.965V263.3ZM216.834 263.3h6.289l-9.084 26.975h-6.29l-5.73-19.428-5.73 19.428h-6.29l-9.085-26.975h6.569l5.871 20.545 5.87-20.545h6.01l5.87 20.545 5.73-20.545ZM285.459 265.816c1.817 1.677 2.795 3.913 2.795 6.988 0 3.075-.978 5.591-2.795 7.268-1.957 1.677-4.613 2.655-7.967 2.655h-5.311v7.687h-6.15V263.44h11.461c3.354-.14 6.01.699 7.967 2.376Zm-4.333 10.482c.978-.838 1.398-1.957 1.398-3.494 0-1.537-.42-2.656-1.398-3.354-.978-.699-2.236-1.118-3.913-1.118h-5.032v9.084h5.032c1.677.14 2.935-.279 3.913-1.118ZM325.571 290.414l-2.096-5.311h-12.439l-2.097 5.311h-6.289l11.74-26.974h6.289l11.601 26.974h-6.709Zm-12.579-10.202h8.526l-4.193-10.483-4.333 10.483ZM344.859 263.3h22.642v5.171h-8.246v21.804h-6.15v-21.804h-8.246V263.3ZM386.089 263.3h6.15v26.975h-6.15V263.3ZM413.623 263.3h20.546v5.032h-14.536v5.87h12.998v5.031h-12.998v6.01h14.955v5.032h-20.965V263.3ZM473.582 263.3h5.731v26.975h-5.591l-13.138-17.331v17.331h-5.87V263.3h5.591l13.138 17.471V263.3h.139ZM498.041 263.3h22.642v5.171h-8.246v21.804h-6.15v-21.804h-8.246V263.3ZM104.463 393.98c-.699-.419-1.398-.559-2.096-.559-.839 0-1.678.14-2.376.559a4.83 4.83 0 0 0-1.678 1.677c-.419.699-.559 1.538-.559 2.376 0 .839.14 1.678.56 2.376.419.699.978 1.258 1.677 1.678.698.419 1.537.698 2.376.698a5.6 5.6 0 0 0 2.096-.419c.699-.279 1.258-.699 1.817-1.258l1.957 2.097c-.839.838-1.677 1.537-2.796 1.956-1.118.42-2.096.699-3.214.699-1.538 0-2.796-.279-4.053-.978-1.258-.699-2.097-1.677-2.796-2.795-.698-1.119-.978-2.516-.978-3.914 0-1.397.42-2.795 1.118-3.913a8.075 8.075 0 0 1 2.935-2.796c1.258-.698 2.516-.978 4.053-.978 1.118 0 2.097.28 3.215.699 1.118.419 1.957 1.118 2.655 1.817l-1.956 2.376c-.559-.559-1.258-.978-1.957-1.398ZM122.772 391.464c1.258.699 2.237 1.538 2.935 2.796.699 1.258 1.118 2.516 1.118 3.913a7.515 7.515 0 0 1-1.118 3.914 8.066 8.066 0 0 1-2.935 2.795c-1.258.699-2.655.978-4.053.978-1.537 0-2.935-.279-4.053-.978a8.073 8.073 0 0 1-2.935-2.795 7.515 7.515 0 0 1-1.118-3.914c0-1.397.419-2.795 1.118-3.913a8.076 8.076 0 0 1 2.935-2.796c1.258-.698 2.655-.978 4.053-.978 1.398 0 2.795.419 4.053.978Zm-6.429 2.656a4.809 4.809 0 0 0-1.677 1.677c-.419.699-.559 1.538-.559 2.376 0 .839.279 1.677.699 2.376a4.809 4.809 0 0 0 1.677 1.677c.699.42 1.537.699 2.236.699.839 0 1.538-.279 2.236-.699a4.82 4.82 0 0 0 1.678-1.677c.419-.699.559-1.537.559-2.376 0-.838-.14-1.677-.559-2.376a4.82 4.82 0 0 0-1.678-1.677c-.698-.419-1.397-.699-2.236-.699-.838 0-1.677.28-2.376.699ZM140.942 390.766h3.214v14.954h-3.075l-7.267-9.643v9.643h-3.215v-14.954h3.075l7.268 9.643v-9.643ZM156.456 393.84c-.839-.279-1.538-.419-2.237-.419-.559 0-1.118.14-1.397.28-.28.279-.559.559-.559.978 0 .559.279.978.699 1.258.559.279 1.257.559 2.236.839.978.279 1.817.559 2.516.838.698.28 1.257.699 1.677 1.398.419.559.699 1.397.699 2.376 0 .978-.28 1.817-.699 2.516-.559.698-1.258 1.257-2.097 1.537-.838.419-1.956.559-3.075.559-1.257 0-2.376-.28-3.633-.699-1.258-.419-2.237-.978-3.075-1.817l1.397-2.795c.699.699 1.678 1.258 2.656 1.677.978.419 1.817.559 2.655.559.699 0 1.258-.14 1.678-.419.419-.28.559-.559.559-1.118 0-.42-.14-.699-.42-.979-.279-.279-.559-.419-.978-.559-.419-.139-.978-.279-1.677-.559a26.36 26.36 0 0 1-2.516-.838c-.699-.28-1.258-.699-1.677-1.258-.419-.559-.699-1.398-.699-2.376 0-.839.28-1.677.699-2.376.419-.699 1.118-1.258 2.096-1.538.839-.419 1.817-.559 3.075-.559.979 0 2.097.14 3.075.42.978.279 1.957.698 2.656 1.258l-1.258 2.795c-.699-.419-1.538-.699-2.376-.979ZM168.336 402.087a3.37 3.37 0 0 0 2.376.978c.978 0 1.817-.28 2.376-.978.559-.699.838-1.398.838-2.516v-8.805h3.355v8.805c0 1.258-.28 2.516-.839 3.354a5.73 5.73 0 0 1-2.236 2.236c-.979.559-2.236.839-3.494.839s-2.516-.28-3.494-.839c-.979-.559-1.817-1.257-2.376-2.236-.56-.978-.839-2.096-.839-3.354v-8.805h3.354v8.805c.14 1.118.42 1.957.979 2.516ZM182.033 390.766h3.354v12.019h6.429v2.935h-9.783v-14.954ZM194.052 390.766h12.579v2.935h-4.612v12.159h-3.354v-12.159h-4.613v-2.935ZM219.49 405.72l-1.119-2.935h-6.988l-1.118 2.935h-3.494l6.569-14.954h3.494l6.429 14.954h-3.773Zm-6.989-5.59h4.752l-2.376-5.87-2.376 5.87ZM223.263 390.766h12.579v2.935h-4.612v12.159h-3.354v-12.159h-4.613v-2.935ZM239.196 390.766h3.355v14.954h-3.355v-14.954ZM258.624 391.464c1.258.699 2.236 1.538 2.935 2.796.699 1.258 1.118 2.516 1.118 3.913a7.515 7.515 0 0 1-1.118 3.914 8.073 8.073 0 0 1-2.935 2.795c-1.258.699-2.656.978-4.053.978-1.538 0-2.935-.279-4.054-.978a8.081 8.081 0 0 1-2.935-2.795 7.525 7.525 0 0 1-1.118-3.914c0-1.397.42-2.795 1.118-3.913a8.084 8.084 0 0 1 2.935-2.796c1.258-.698 2.656-.978 4.054-.978 1.537 0 2.795.419 4.053.978Zm-6.29 2.656a4.817 4.817 0 0 0-1.677 1.677c-.419.699-.559 1.538-.559 2.376 0 .839.28 1.677.699 2.376a4.809 4.809 0 0 0 1.677 1.677c.699.42 1.538.699 2.236.699.839 0 1.538-.279 2.237-.699a4.826 4.826 0 0 0 1.677-1.677c.419-.699.559-1.537.559-2.376 0-.838-.14-1.677-.559-2.376a4.826 4.826 0 0 0-1.677-1.677c-.699-.419-1.398-.699-2.237-.699-.978 0-1.677.28-2.376.699ZM276.793 390.766h3.215v14.954h-3.075l-7.268-9.643v9.643h-3.214v-14.954h3.074l7.268 9.643v-9.643ZM291.608 390.766h11.461v2.795h-8.106v3.215h7.267v2.795h-7.267v3.354h8.246v2.795h-11.601v-14.954ZM306.423 390.766h3.914l3.075 4.612 3.214-4.612h4.053l-5.031 7.128 5.451 7.826h-4.053l-3.495-5.031-3.494 5.031h-3.913l5.451-7.687-5.172-7.267ZM335.634 405.72l-1.118-2.935h-6.988l-1.118 2.935h-3.494l6.569-14.954h3.494l6.429 14.954h-3.774Zm-6.988-5.59h4.752l-2.376-5.87-2.376 5.87ZM342.483 390.766h3.773l4.613 9.224 4.612-9.224h3.774v14.954h-3.075v-10.063l-4.333 8.666h-2.236l-4.333-8.666v10.203h-3.075v-15.094h.28ZM381.897 405.72l-1.119-2.935h-6.988l-1.118 2.935h-3.494l6.569-14.954h3.494l6.429 14.954h-3.773Zm-6.989-5.59h4.752l-2.376-5.87-2.376 5.87ZM399.227 391.744c1.258.699 2.097 1.537 2.796 2.656.698 1.118.978 2.376.978 3.913s-.28 2.795-.978 3.913c-.699 1.118-1.678 1.957-2.796 2.656-1.118.699-2.655.978-4.193.978h-6.289v-14.955h6.429a6.885 6.885 0 0 1 4.053.839Zm-1.817 10.622c.699-.419 1.118-.978 1.538-1.677.419-.699.559-1.537.559-2.376s-.14-1.677-.559-2.376a4.826 4.826 0 0 0-1.677-1.677c-.699-.42-1.398-.559-2.237-.559h-2.935v9.364h3.075c.839-.14 1.538-.419 2.236-.699ZM413.064 404.602c-.839.839-2.096 1.258-3.634 1.258-1.957 0-3.634-.838-4.892-2.376l1.538-2.376c.559.559 1.118.979 1.677 1.258.559.28 1.118.419 1.537.419.559 0 .979-.139 1.398-.559.419-.419.419-.838.419-1.397v-7.268h-5.171v-2.935h8.526v10.203c0 1.677-.42 2.935-1.398 3.773ZM423.127 402.087a3.372 3.372 0 0 0 2.376.978c.978 0 1.817-.28 2.376-.978.559-.559.839-1.398.839-2.516v-8.805h3.354v8.805c0 1.258-.279 2.516-.838 3.354-.56.839-1.258 1.677-2.237 2.236-.978.559-2.236.839-3.494.839s-2.516-.28-3.494-.839c-.978-.559-1.817-1.257-2.376-2.236-.559-.978-.839-2.096-.839-3.354v-8.805h3.355v8.805c0 1.118.419 1.957.978 2.516ZM444.232 393.84c-.839-.279-1.538-.419-2.237-.419-.559 0-1.118.14-1.397.28-.28.139-.559.559-.559.978 0 .559.279.978.699 1.258.559.279 1.257.559 2.236.839.978.279 1.817.559 2.516.838.698.28 1.257.699 1.677 1.398.419.559.699 1.397.699 2.376 0 .978-.28 1.817-.699 2.516-.559.698-1.258 1.257-2.097 1.537-.838.419-1.956.559-3.075.559-1.257 0-2.376-.28-3.633-.699-1.119-.419-2.237-.978-3.075-1.817l1.397-2.795c.699.699 1.678 1.258 2.656 1.677.978.419 1.817.559 2.655.559.699 0 1.258-.14 1.678-.419.419-.28.559-.559.559-1.118 0-.42-.14-.699-.42-.979-.279-.279-.559-.419-.978-.559-.419-.139-.978-.279-1.677-.559a26.456 26.456 0 0 1-2.516-.838c-.699-.28-1.258-.699-1.677-1.258-.419-.559-.699-1.398-.699-2.376 0-.839.28-1.677.699-2.376.419-.699 1.118-1.258 2.096-1.538.979-.279 1.817-.559 3.075-.559.979 0 2.097.14 3.075.42.978.279 1.817.698 2.656 1.258l-1.258 2.795c-.699-.419-1.538-.699-2.376-.979ZM450.661 390.766h12.579v2.935h-4.613v12.159h-3.354v-12.159h-4.612v-2.935ZM466.594 390.766h3.774l4.612 9.224 4.612-9.224h3.774v14.954h-3.075v-10.063l-4.333 8.666h-2.236l-4.333-8.666v10.203h-3.074v-15.094h.279ZM488.397 390.766h11.461v2.795h-8.106v3.215h7.268v2.795h-7.268v3.354h8.246v2.795h-11.601v-14.954ZM514.673 390.766h3.215v14.954h-3.075l-7.268-9.643v9.643h-3.214v-14.954h3.074l7.268 9.643v-9.643ZM521.242 390.766h12.579v2.935h-4.612v12.159h-3.355v-12.159h-4.612v-2.935ZM55.4 84.8c1.9 1 4.9 2.1 9.1 3.2 4.7 1.3 8.6 2.7 11.7 4.1 3.1 1.4 5.7 3.5 8 6.3s3.4 6.5 3.4 11.1c0 5.9-2 10.7-5.9 14.2-3.9 3.6-9.1 5.8-15.4 6.7V145H51.9v-14.8c-4.5-.7-8.9-1.9-13.1-3.7-4.2-1.8-7.9-3.9-11.1-6.5l7.4-15.1c3.4 2.9 7.5 5.4 12.4 7.4s9.1 3 12.6 3c2.2 0 3.9-.4 5.1-1.2 1.2-.8 1.8-2 1.8-3.5 0-1.8-1-3.3-3-4.2-2-1-5-2-9.2-3.1-4.6-1.2-8.5-2.5-11.6-3.8-3.1-1.3-5.7-3.3-7.9-6.1-2.2-2.7-3.3-6.3-3.3-10.8 0-5.4 1.8-9.9 5.3-13.6 3.5-3.6 8.4-6 14.7-7.1v-14h14.2v13.8c4 .5 7.9 1.4 11.6 2.7 3.7 1.3 7 2.9 9.9 4.7l-7.4 15.3c-3.6-2.1-7.5-3.9-11.7-5.3-4.3-1.5-7.8-2.2-10.5-2.2-1.7 0-3.1.3-4.1 1-1 .7-1.5 1.6-1.5 2.9 0 1.6 1 3 2.9 4ZM203.016 56.5v168h-45.61v-126h-.984l-36.75 21.984V81.766L161.016 56.5h42ZM292.202 229.094c-15.258-.055-28.438-3.582-39.539-10.582-11.102-7-19.661-17.09-25.676-30.27-6.016-13.18-8.996-28.984-8.942-47.414.055-18.484 3.063-34.18 9.024-47.086 6.015-12.906 14.547-22.723 25.594-29.449 11.101-6.727 24.281-10.09 39.539-10.09 15.257 0 28.437 3.39 39.539 10.172 11.101 6.727 19.66 16.543 25.675 29.45 6.016 12.905 8.997 28.573 8.942 47.003 0 18.539-3.008 34.399-9.024 47.578-6.015 13.18-14.574 23.27-25.675 30.27-11.047 6.945-24.2 10.418-39.457 10.418Zm0-37.078c7.875 0 14.328-4.102 19.359-12.305 5.086-8.258 7.602-21.219 7.547-38.883 0-11.539-1.149-20.973-3.445-28.301-2.297-7.328-5.469-12.742-9.516-16.242-4.047-3.554-8.695-5.332-13.945-5.332-7.875 0-14.301 3.992-19.278 11.977-4.976 7.984-7.519 20.617-7.629 37.898-.054 11.758 1.067 21.438 3.364 29.039 2.297 7.547 5.468 13.125 9.515 16.735 4.102 3.609 8.778 5.414 14.028 5.414ZM436.554 226.797c-12.907 0-24.364-2.27-34.371-6.809-9.954-4.593-17.801-10.91-23.543-18.949-5.688-8.039-8.586-17.281-8.696-27.727h44.297c.164 5.797 2.406 10.418 6.727 13.864 4.375 3.445 9.57 5.168 15.586 5.168 4.648 0 8.75-.985 12.304-2.953 3.555-2.024 6.344-4.868 8.368-8.532 2.023-3.664 3.007-7.929 2.953-12.796.054-4.922-.93-9.188-2.953-12.797-2.024-3.664-4.813-6.481-8.368-8.45-3.554-2.023-7.656-3.035-12.304-3.035-4.813 0-9.27 1.176-13.371 3.528-4.047 2.296-7.028 5.496-8.942 9.597l-40.031-7.875 6.562-92.531h112.875v36.422h-75.468L414.897 130h.985c2.625-5.086 7.164-9.297 13.617-12.633 6.453-3.39 13.945-5.086 22.477-5.086 10.007 0 18.921 2.324 26.742 6.973 7.875 4.648 14.082 11.074 18.621 19.277 4.594 8.149 6.863 17.555 6.808 28.219.055 11.703-2.734 22.094-8.367 31.172-5.578 9.023-13.426 16.105-23.543 21.246-10.117 5.086-22.011 7.629-35.683 7.629Z"/></svg>
